<svg width="69" height="59" viewBox="0 0 69 59" fill="none" xmlns="http://www.w3.org/2000/svg">
<path fill-rule="evenodd" clip-rule="evenodd" d="M56.5001 24.5002C56.5001 15.1114 48.8889 7.50024 39.5001 7.50024C30.1112 7.50024 22.5001 15.1114 22.5001 24.5002C22.5001 33.8891 30.1112 41.5002 39.5001 41.5002C48.8889 41.5002 56.5001 33.8891 56.5001 24.5002ZM39.5001 1.50024C52.2026 1.50024 62.5001 11.7977 62.5001 24.5002C62.5001 37.2028 52.2026 47.5002 39.5001 47.5002C34.5934 47.5002 30.0455 45.9638 26.3115 43.3457L12.3285 57.3287C10.7664 58.8908 8.23373 58.8908 6.67163 57.3287C5.10954 55.7666 5.10954 53.2339 6.67163 51.6718L20.6546 37.6889C18.0365 33.9548 16.5001 29.4069 16.5001 24.5002C16.5001 11.7977 26.7975 1.50024 39.5001 1.50024Z" fill="black"/>
</svg>
