<svg height="20" viewBox="0 0 20 20" width="20" xmlns="http://www.w3.org/2000/svg"><path d="m9.46727453 0c3.18352637 0 5.76428437 2.56640935 5.76428437 5.73223573 0 1.74431936-.7834749 3.30666575-2.0195675 4.35802137.2702118.1335648.5155768.2680387.7377618.4028091.4782219.2900745.9744446.649694 1.4897104 1.078673.2929214.2438686.3315813.6777026.0863492.9689954-.245232.2912928-.6814915.3297377-.9744129.0858692-.4647888-.386955-.905818-.7065749-1.3220453-.9590454-.3764797-.2283609-.8453376-.4633225-1.4053581-.7032347-.7207034.3219222-1.5177829.5001478-2.35672197.5001478-.92783195 0-1.80446364-.2179956-2.58092772-.6052917l-.04153328.0194542c-1.95044166.756105-3.37326943 1.874295-4.29206408 3.3583137-.92186774 1.4889824-1.29845126 3.1526312-1.13052207 5.0136635.0341428.3783789-.24663062.7126399-.62712499.7465929-.38049438.0339529-.71662422-.2452594-.75076702-.6236383-.19418008-2.1519512.2495315-4.1121544 1.33036324-5.8578922.95069237-1.5355394 2.34745615-2.7301403 4.17438008-3.58127666-1.13552856-1.04486063-1.84608855-2.54099219-1.84608855-4.20216121 0-3.16582638 2.58075803-5.73223573 5.76428439-5.73223573zm7.40088447 12.6926826c.3798992 0 .6878683.3096909.6878683.6917141l-.0000273 1.7516033 1.7522859.0006553c.3820231 0 .6917141.3079691.6917141.6878683 0 .3798991-.309691.6878683-.6917141.6878683l-1.7522859-.0003919.0000273 1.7526504c0 .3820232-.3079691.6917142-.6878683.6917142s-.6878683-.309691-.6878683-.6917142l-.0002907-1.7526504-1.7519679.0003919c-.3820231 0-.6917141-.3079692-.6917141-.6878683 0-.3798992.309691-.6878683.6917141-.6878683l1.7519679-.0006553.0002907-1.7516033c0-.3820232.3079691-.6917141.6878683-.6917141zm-7.40088447-11.31694602c-2.41948004 0-4.38085614 1.9504711-4.38085614 4.35649915s1.9613761 4.35649917 4.38085614 4.35649917c2.41948007 0 4.38085617-1.95047112 4.38085617-4.35649917s-1.9613761-4.35649915-4.38085617-4.35649915z" fill="#555"/></svg>